<svg xmlns="http://www.w3.org/2000/svg" width="190.1311672322484" height="187.58371800161103" viewBox="286 136.56119600116824 190.1311672322484 187.58371800161103"><path d="M 305.02569181904573,307.1449140027793 A 153.491031319956 153.491031319956 0 0 0 459.1311672322484,153.56119600116824" stroke="#0000ff" fill="none" stroke-width="2"/><circle cx="305.64016464471405" cy="153.65511265164645" r="7" fill="#0000ff"/><line x1="306" y1="155" x2="422.94655053300977" y2="252.64353887153322" stroke="#0d0d0d" stroke-width="2"/><text x="364.47327526650486" y="203.8217694357666" text-anchor="middle">r</text><line x1="306" y1="155" x2="305.02569181904573" y2="307.1449140027793" stroke="#050505" stroke-width="2"/><line x1="303" y1="253" x2="305.02569181904573" y2="307.1449140027793" stroke="#080808" stroke-width="2"/><text x="304.01284590952287" y="280.07245700138964" text-anchor="middle">hAB</text><line x1="308" y1="184" x2="331" y2="176" stroke="#000000" stroke-width="2"/><text x="319.5" y="180" text-anchor="middle">α</text><line x1="303" y1="253" x2="422.94655053300977" y2="252.64353887153322" stroke="#080707" stroke-width="2"/><line x1="303" y1="253" x2="305.02569181904573" y2="307.1449140027793" stroke="#0000ff" stroke-width="2"/><circle cx="305.02569181904573" cy="307.1449140027793" r="7" fill="#ff0000"/><text x="314.02569181904573" y="298.1449140027793">A</text><circle cx="422.94655053300977" cy="252.64353887153322" r="7" fill="#ff0000"/><text x="431.94655053300977" y="243.64353887153322">B</text><circle cx="459.1311672322484" cy="153.56119600116824" r="7" fill="#ff0000"/><text x="468.1311672322484" y="144.56119600116824">C</text><circle cx="306" cy="155" r="7" fill="#050505"/><text x="315" y="146">O</text><circle cx="303" cy="253" r="5" fill="#050505"/><text x="310" y="246">B'</text><circle cx="308" cy="184" r="3" fill="#030303"/><text x="313" y="179"/><circle cx="331" cy="176" r="3" fill="#0d0c0c"/><text x="336" y="171"/></svg>