<svg xmlns="http://www.w3.org/2000/svg" width="301.56352467720905" height="187.58454435089902" viewBox="174.56764255503936 136.56119600116824 301.56352467720905 187.58454435089902"><path d="M 191.56764255503936,256.3534884896527 A 153.491031319956 153.491031319956 0 0 0 459.1311672322484,153.56119600116824" stroke="#0000ff" fill="none" stroke-width="2"/><circle cx="305.64016464471405" cy="153.65511265164645" r="7" fill="#0000ff"/><line x1="306" y1="155" x2="305.99216435285416" y2="307.14574035206726" stroke="#0d0d0d" stroke-width="2"/><line x1="306" y1="155" x2="191.56764255503936" y2="256.3534884896527" stroke="#050505" stroke-width="2"/><line x1="305" y1="256" x2="191.56764255503936" y2="256.3534884896527" stroke="#080808" stroke-width="2"/><line x1="287" y1="171" x2="308" y2="186" stroke="#000000" stroke-width="2"/><text x="297.5" y="178.5" text-anchor="middle">α</text><line x1="305" y1="256" x2="305.99216435285416" y2="307.14574035206726" stroke="#ff0000" stroke-width="2"/><text x="305.4960821764271" y="281.57287017603363" text-anchor="middle">hAB</text><circle cx="191.56764255503936" cy="256.3534884896527" r="7" fill="#ff0000"/><text x="200.56764255503936" y="247.3534884896527">A</text><circle cx="305.99216435285416" cy="307.14574035206726" r="7" fill="#ff0000"/><text x="314.99216435285416" y="298.14574035206726">B</text><circle cx="459.1311672322484" cy="153.56119600116824" r="7" fill="#ff0000"/><text x="468.1311672322484" y="144.56119600116824">C</text><circle cx="306" cy="155" r="7" fill="#050505"/><text x="315" y="146">O</text><circle cx="305" cy="256" r="5" fill="#050505"/><text x="312" y="249">A'</text><circle cx="287" cy="171" r="3" fill="#030303"/><text x="292" y="166"/><circle cx="308" cy="186" r="3" fill="#0d0c0c"/><text x="313" y="181"/></svg>