<svg version="1.1" viewBox="0.0 0.0 404.6509186351706 385.11548556430444" fill="none" stroke="none" stroke-linecap="square" stroke-miterlimit="10" xmlns:xlink="http://www.w3.org/1999/xlink" xmlns="http://www.w3.org/2000/svg"><clipPath id="p.0"><path d="m0 0l404.6509 0l0 385.11548l-404.6509 0l0 -385.11548z" clip-rule="nonzero"/></clipPath><g clip-path="url(#p.0)"><path fill="#000000" fill-opacity="0.0" d="m0 0l404.6509 0l0 385.11548l-404.6509 0z" fill-rule="evenodd"/><path fill="#ffffff" d="m-2.7900262 -1.3963255l408.8504 0l0 385.13385l-408.8504 0z" fill-rule="evenodd"/><path fill="#000000" fill-opacity="0.0" d="m104.48819 274.65616l0.75590515 -250.77164" fill-rule="evenodd"/><path stroke="#000000" stroke-width="1.0" stroke-linejoin="round" stroke-linecap="butt" d="m104.48819 274.65616l0.73781586 -244.77167" fill-rule="evenodd"/><path fill="#000000" stroke="#000000" stroke-width="1.0" stroke-linecap="butt" d="m106.87773 29.889465l-1.6380463 -4.5430546l-1.6653976 4.533098z" fill-rule="evenodd"/><path fill="#000000" fill-opacity="0.0" d="m104.48819 274.65616l279.1496 0.7559204" fill-rule="evenodd"/><path stroke="#000000" stroke-width="1.0" stroke-linejoin="round" stroke-linecap="butt" d="m104.48819 274.65616l273.14966 0.73968506" fill-rule="evenodd"/><path fill="#000000" stroke="#000000" stroke-width="1.0" stroke-linecap="butt" d="m377.63333 277.04755l4.542572 -1.6394348l-4.5336 -1.6640015z" fill-rule="evenodd"/><path fill="#000000" fill-opacity="0.0" d="m104.48819 274.65616l-68.66142 77.63782" fill-rule="evenodd"/><path stroke="#000000" stroke-width="1.0" stroke-linejoin="round" stroke-linecap="butt" d="m104.48819 274.65616l-64.68657 73.14331" fill-rule="evenodd"/><path fill="#000000" stroke="#000000" stroke-width="1.0" stroke-linecap="butt" d="m38.56434 346.70523l-1.7690926 4.4936523l4.243664 -2.3051758z" fill-rule="evenodd"/><path fill="#000000" fill-opacity="0.0" d="m73.14173 33.5853l26.866142 0l0 42.01575l-26.866142 0z" fill-rule="evenodd"/><path fill="#000000" d="m82.50111 60.5053l0 -1.328125l6.15625 -7.078125q-1.046875 0.0625 -1.84375 0.0625l-3.9375 0l0 -1.328125l7.90625 0l0 1.078125l-5.25 6.140625l-1.0 1.125q1.09375 -0.078125 2.0625 -0.078125l4.46875 0l0 1.40625l-8.5625 0z" fill-rule="nonzero"/><path fill="#000000" fill-opacity="0.0" d="m344.06824 274.65616l26.86615 0l0 42.015747l-26.86615 0z" fill-rule="evenodd"/><path fill="#000000" d="m354.2245 305.29492l-0.1875 -1.53125q0.546875 0.140625 0.9375 0.140625q0.546875 0 0.875 -0.1875q0.328125 -0.171875 0.546875 -0.5q0.15625 -0.25 0.5 -1.21875q0.046875 -0.140625 0.140625 -0.40625l-3.671875 -9.6875l1.765625 0l2.015625 5.59375q0.390625 1.078125 0.703125 2.25q0.28125 -1.125 0.671875 -2.203125l2.078125 -5.640625l1.640625 0l-3.6875 9.828125q-0.59375 1.609375 -0.921875 2.203125q-0.4375 0.8125 -1.0 1.1875q-0.5625 0.375 -1.34375 0.375q-0.484375 0 -1.0625 -0.203125z" fill-rule="nonzero"/><path fill="#000000" fill-opacity="0.0" d="m158.97113 116.43009c1.8009644 -10.780518 10.825378 -23.085716 21.64566 -24.629921c8.616959 -1.2297516 18.854218 5.4824066 22.391083 13.435699c12.851379 28.898666 20.412842 59.89833 29.107605 90.30708c5.6931763 19.911087 2.5218658 45.06517 17.16536 59.708664" fill-rule="evenodd"/><path stroke="#4a86e8" stroke-width="2.0" stroke-linejoin="round" stroke-linecap="butt" d="m158.97113 116.43009c1.8009644 -10.780518 10.825378 -23.085716 21.64566 -24.629921c8.616959 -1.2297516 18.854218 5.4824066 22.391083 13.435699c12.851379 28.898666 20.412842 59.89833 29.107605 90.30708c5.6931763 19.911087 2.5218658 45.06517 17.16536 59.708664" fill-rule="evenodd"/><path fill="#000000" fill-opacity="0.0" d="m250.02625 256.74216c7.0010376 18.67218 13.921692 56.31131 32.839905 50.00525c13.731354 -4.577118 16.73941 -24.199036 20.897644 -38.06299c6.9046326 -23.020935 12.575104 -49.922623 31.346436 -64.93176c8.011078 -6.405487 18.60559 10.608276 23.881897 19.40419" fill-rule="evenodd"/><path stroke="#4a86e8" stroke-width="2.0" stroke-linejoin="round" stroke-linecap="butt" d="m250.02625 256.74216c7.0010376 18.67218 13.921692 56.31131 32.839905 50.00525c13.731354 -4.577118 16.73941 -24.199036 20.897644 -38.06299c6.9046326 -23.020935 12.575104 -49.922623 31.346436 -64.93176c8.011078 -6.405487 18.60559 10.608276 23.881897 19.40419" fill-rule="evenodd"/><path fill="#000000" fill-opacity="0.0" d="m184.34908 247.04199l42.551193 0l0 37.165344l-42.551193 0z" fill-rule="evenodd"/><path fill="#000000" fill-opacity="0.0" d="m40.892387 211.48294l23.55906 0l0 35.55905l-23.55906 0z" fill-rule="evenodd"/><path fill="#000000" d="m197.2126 104.485565c0 -0.100242615 0.53590393 -0.19637299 1.4898376 -0.26725006c0.95391846 -0.070884705 2.2477264 -0.110702515 3.5967712 -0.110702515l0 0c2.8092651 0 5.086624 0.16921234 5.086624 0.37795258l0 0c0 0.20874023 -2.277359 0.37795258 -5.086624 0.37795258l0 0c-2.8092499 0 -5.086609 -0.16921234 -5.086609 -0.37795258z" fill-rule="evenodd"/><path fill="#000000" fill-opacity="0.0" d="m164.93274 99.26725l56.503937 -26.897636" fill-rule="evenodd"/><path stroke="#000000" stroke-width="2.0" stroke-linejoin="round" stroke-linecap="butt" d="m164.93274 99.26726l45.668945 -21.739845" fill-rule="evenodd"/><path fill="#000000" stroke="#000000" stroke-width="2.0" stroke-linecap="butt" d="m212.02156 80.51016l6.7751617 -6.8838425l-9.614914 0.9183426z" fill-rule="evenodd"/><path fill="#000000" fill-opacity="0.0" d="m148.25197 108.968506l111.74803 -56.692917" fill-rule="evenodd"/><path stroke="#000000" stroke-width="1.0" stroke-linejoin="round" stroke-linecap="butt" stroke-dasharray="4.0,3.0" d="m148.25197 108.968506l111.74803 -56.692917" fill-rule="evenodd"/><path fill="#000000" fill-opacity="0.0" d="m73.14173 250.77165l35.086617 0l0 35.559067l-35.086617 0z" fill-rule="evenodd"/><path fill="#000000" d="m82.78236 267.93103q0 -2.375 1.28125 -3.71875q1.28125 -1.34375 3.296875 -1.34375q1.3125 0 2.375 0.625q1.0625 0.625 1.609375 1.765625q0.5625 1.125 0.5625 2.5625q0 1.4375 -0.59375 2.59375q-0.578125 1.140625 -1.65625 1.734375q-1.0625 0.578125 -2.3125 0.578125q-1.34375 0 -2.40625 -0.640625q-1.0625 -0.65625 -1.609375 -1.78125q-0.546875 -1.125 -0.546875 -2.375zm1.3125 0.015625q0 1.71875 0.921875 2.71875q0.921875 0.984375 2.328125 0.984375q1.421875 0 2.34375 -1.0q0.921875 -1.0 0.921875 -2.84375q0 -1.15625 -0.40625 -2.03125q-0.390625 -0.875 -1.15625 -1.34375q-0.75 -0.484375 -1.6875 -0.484375q-1.34375 0 -2.3125 0.921875q-0.953125 0.921875 -0.953125 3.078125z" fill-rule="nonzero"/><path fill="#000000" fill-opacity="0.0" d="m163.45145 105.23622l1.4803162 -2.2362213" fill-rule="evenodd"/><path stroke="#000000" stroke-width="1.0" stroke-linejoin="round" stroke-linecap="butt" d="m163.45145 105.23622l1.4803162 -2.2362213" fill-rule="evenodd"/><path fill="#000000" fill-opacity="0.0" d="m161.57611 108.968506l5.228348 -9.70079" fill-rule="evenodd"/><path stroke="#0000ff" stroke-width="2.0" stroke-linejoin="round" stroke-linecap="butt" d="m161.57611 108.968506l1.9764557 -3.6671524" fill-rule="evenodd"/><path fill="#0000ff" stroke="#0000ff" stroke-width="2.0" stroke-linecap="butt" d="m163.55257 105.30136l0.9128113 3.0470047l0.95191956 -6.506859l-4.911743 4.372673z" fill-rule="evenodd"/><path fill="#000000" fill-opacity="0.0" d="m176.13518 91.49344l13.480301 1.921257" fill-rule="evenodd"/><path stroke="#0000ff" stroke-width="2.0" stroke-linejoin="round" stroke-linecap="butt" d="m176.13518 91.49344l6.6947174 0.95414734" fill-rule="evenodd"/><path fill="#0000ff" stroke="#0000ff" stroke-width="2.0" stroke-linecap="butt" d="m182.82988 92.44759l-2.5440063 1.9093094l6.4350586 -1.354744l-5.8003693 -3.098587z" fill-rule="evenodd"/><path fill="#000000" fill-opacity="0.0" d="m219.06036 146.47507l1.1023712 8.031494" fill-rule="evenodd"/><path stroke="#0000ff" stroke-width="2.0" stroke-linejoin="round" stroke-linecap="butt" d="m219.06036 146.47507l0.17033386 1.240982" fill-rule="evenodd"/><path fill="#0000ff" stroke="#0000ff" stroke-width="2.0" stroke-linecap="butt" d="m219.2307 147.71605l-2.5341187 -1.9224243l3.068573 5.816284l1.3879852 -6.4279785z" fill-rule="evenodd"/><path fill="#000000" fill-opacity="0.0" d="m235.69685 202.25722l0.1574707 14.67717" fill-rule="evenodd"/><path stroke="#0000ff" stroke-width="2.0" stroke-linejoin="round" stroke-linecap="butt" d="m235.69685 202.25722l0.0839386 7.823395" fill-rule="evenodd"/><path fill="#0000ff" stroke="#0000ff" stroke-width="2.0" stroke-linecap="butt" d="m235.78079 210.08061l-2.2731628 -2.2249146l2.3153381 6.1550446l2.182724 -6.203308z" fill-rule="evenodd"/><path fill="#000000" fill-opacity="0.0" d="m207.38583 104.485565l40.59842 146.89764" fill-rule="evenodd"/><path stroke="#000000" stroke-width="1.0" stroke-linejoin="round" stroke-linecap="butt" stroke-dasharray="4.0,3.0" d="m207.38583 104.485565l40.59842 146.89764" fill-rule="evenodd"/><path fill="#000000" fill-opacity="0.0" d="m222.6063 159.97113l16.913391 64.25197" fill-rule="evenodd"/><path stroke="#000000" stroke-width="2.0" stroke-linejoin="round" stroke-linecap="butt" d="m222.6063 159.97113l13.858627 52.647293" fill-rule="evenodd"/><path fill="#000000" stroke="#000000" stroke-width="2.0" stroke-linecap="butt" d="m233.2703 213.45937l5.5050964 7.936249l0.88417053 -9.618134z" fill-rule="evenodd"/><path fill="#000000" fill-opacity="0.0" d="m162.50919 47.39895l60.094482 0l0 35.55906l-60.094482 0z" fill-rule="evenodd"/><path fill="#000000" d="m175.25919 69.19895l-3.6875 -9.546879l1.359375 0l2.484375 6.937504q0.296875 0.828125 0.5 1.5625q0.21875 -0.78125 0.515625 -1.5625l2.578125 -6.937504l1.28125 0l-3.734375 9.546879l-1.296875 0z" fill-rule="nonzero"/><path fill="#000000" d="m181.05519 74.19895l0 -6.359375l1.265625 0l1.5 4.5q0.21875 0.640625 0.3125 0.9375q0.109375 -0.34375 0.328125 -1.015625l1.53125 -4.421875l1.125 0l0 6.359375l-0.8125 0l0 -5.3125l-1.84375 5.3125l-0.75 0l-1.84375 -5.40625l0 5.40625l-0.8125 0z" fill-rule="nonzero"/><path fill="#000000" d="m190.91676 72.01145q-0.984375 -1.234375 -1.65625 -2.875q-0.65625 -1.640625 -0.65625 -3.390625q0 -1.546875 0.5 -2.9687538q0.578125 -1.640625 1.8125 -3.28125l0.828125 0q-0.78125 1.359375 -1.03125 1.9375q-0.40625 0.890625 -0.625 1.875q-0.28125 1.2187538 -0.28125 2.4375038q0 3.140625 1.9375 6.265625l-0.828125 0zm4.7508698 -3.859375l0.171875 1.03125q-0.5 0.109375 -0.890625 0.109375q-0.640625 0 -1.0 -0.203125q-0.34375 -0.203125 -0.484375 -0.53125q-0.140625 -0.328125 -0.140625 -1.390625l0 -3.9687538l-0.859375 0l0 -0.90625l0.859375 0l0 -1.71875l1.171875 -0.703125l0 2.421875l1.171875 0l0 0.90625l-1.171875 0l0 4.046879q0 0.5 0.046875 0.640625q0.0625 0.140625 0.203125 0.234375q0.140625 0.078125 0.40625 0.078125q0.203125 0 0.515625 -0.046875z" fill-rule="nonzero"/><path fill="#000000" d="m199.24562 74.19895l-0.78125 0l0 -4.96875q-0.28125 0.265625 -0.75 0.53125q-0.453125 0.265625 -0.8125 0.40625l0 -0.75q0.65625 -0.3125 1.140625 -0.75q0.484375 -0.4375 0.6875 -0.84375l0.515625 0l0 6.375z" fill-rule="nonzero"/><path fill="#000000" d="m202.50952 72.01145l-0.828125 0q1.9375 -3.125 1.9375 -6.265625q0 -1.21875 -0.28125 -2.4218788q-0.21875 -0.984375 -0.609375 -1.875q-0.265625 -0.59375 -1.046875 -1.953125l0.828125 0q1.234375 1.640625 1.8125 3.28125q0.5 1.4218788 0.5 2.9687538q0 1.75 -0.671875 3.390625q-0.671875 1.640625 -1.640625 2.875z" fill-rule="nonzero"/><path fill="#000000" fill-opacity="0.0" d="m235.85564 150.43832l56.503952 0l0 35.55905l-56.503952 0z" fill-rule="evenodd"/><path fill="#000000" d="m248.60564 172.23833l-3.6875 -9.546875l1.359375 0l2.484375 6.9375q0.296875 0.828125 0.5 1.5625q0.21875 -0.78125 0.515625 -1.5625l2.578125 -6.9375l1.28125 0l-3.734375 9.546875l-1.296875 0z" fill-rule="nonzero"/><path fill="#000000" d="m254.40164 177.23833l0 -6.359375l1.265625 0l1.5 4.5q0.21875 0.640625 0.3125 0.9375q0.109375 -0.34375 0.328125 -1.015625l1.53125 -4.421875l1.125 0l0 6.359375l-0.8125 0l0 -5.3125l-1.84375 5.3125l-0.75 0l-1.84375 -5.40625l0 5.40625l-0.8125 0z" fill-rule="nonzero"/><path fill="#000000" d="m264.2632 175.05083q-0.984375 -1.234375 -1.65625 -2.875q-0.65625 -1.640625 -0.65625 -3.390625q0 -1.546875 0.5 -2.96875q0.578125 -1.640625 1.8125 -3.28125l0.828125 0q-0.78125 1.359375 -1.03125 1.9375q-0.40625 0.890625 -0.625 1.875q-0.28125 1.21875 -0.28125 2.4375q0 3.140625 1.9375 6.265625l-0.828125 0zm4.750885 -3.859375l0.171875 1.03125q-0.5 0.109375 -0.890625 0.109375q-0.640625 0 -1.0 -0.203125q-0.34375 -0.203125 -0.484375 -0.53125q-0.140625 -0.328125 -0.140625 -1.390625l0 -3.96875l-0.859375 0l0 -0.90625l0.859375 0l0 -1.71875l1.171875 -0.703125l0 2.421875l1.171875 0l0 0.90625l-1.171875 0l0 4.046875q0 0.5 0.046875 0.640625q0.0625 0.140625 0.203125 0.234375q0.140625 0.078125 0.40625 0.078125q0.203125 0 0.515625 -0.046875z" fill-rule="nonzero"/><path fill="#000000" d="m269.65457 175.56645l0.78125 -0.109375q0.125 0.65625 0.453125 0.953125q0.328125 0.296875 0.78125 0.296875q0.5625 0 0.9375 -0.375q0.375 -0.390625 0.375 -0.953125q0 -0.53125 -0.359375 -0.875q-0.34375 -0.359375 -0.875 -0.359375q-0.234375 0 -0.5625 0.09375l0.09375 -0.6875q0.078125 0 0.125 0q0.5 0 0.890625 -0.25q0.40625 -0.265625 0.40625 -0.8125q0 -0.421875 -0.296875 -0.703125q-0.28125 -0.28125 -0.75 -0.28125q-0.453125 0 -0.765625 0.28125q-0.296875 0.28125 -0.375 0.859375l-0.78125 -0.140625q0.140625 -0.78125 0.640625 -1.203125q0.515625 -0.4375 1.265625 -0.4375q0.515625 0 0.953125 0.21875q0.4375 0.21875 0.671875 0.609375q0.234375 0.390625 0.234375 0.8125q0 0.421875 -0.21875 0.765625q-0.21875 0.328125 -0.65625 0.53125q0.5625 0.125 0.875 0.546875q0.3125 0.40625 0.3125 1.015625q0 0.828125 -0.609375 1.40625q-0.609375 0.578125 -1.53125 0.578125q-0.828125 0 -1.390625 -0.5q-0.546875 -0.5 -0.625 -1.28125z" fill-rule="nonzero"/><path fill="#000000" d="m275.856 175.05083l-0.828125 0q1.9375 -3.125 1.9375 -6.265625q0 -1.21875 -0.28125 -2.421875q-0.21875 -0.984375 -0.609375 -1.875q-0.265625 -0.59375 -1.046875 -1.953125l0.828125 0q1.234375 1.640625 1.8125 3.28125q0.5 1.421875 0.5 2.96875q0 1.75 -0.671875 3.390625q-0.671875 1.640625 -1.640625 2.875z" fill-rule="nonzero"/><path fill="#000000" fill-opacity="0.0" d="m168.43045 47.39895l24.125977 0" fill-rule="evenodd"/><path stroke="#000000" stroke-width="1.0" stroke-linejoin="round" stroke-linecap="butt" d="m168.43045 47.39895l18.125977 0" fill-rule="evenodd"/><path fill="#000000" stroke="#000000" stroke-width="1.0" stroke-linecap="butt" d="m186.55643 49.050682l4.538101 -1.6517334l-4.538101 -1.6517296z" fill-rule="evenodd"/><path fill="#000000" fill-opacity="0.0" d="m242.91077 149.8084l21.196838 0.6299286" fill-rule="evenodd"/><path stroke="#000000" stroke-width="1.0" stroke-linejoin="round" stroke-linecap="butt" d="m242.91077 149.8084l15.199493 0.45169067" fill-rule="evenodd"/><path fill="#000000" stroke="#000000" stroke-width="1.0" stroke-linecap="butt" d="m258.0612 151.9111l4.5851746 -1.5162048l-4.48703 -1.7858124z" fill-rule="evenodd"/><path fill="#ffffff" d="m314.86353 87.7979l0 0c0 -2.6787949 3.0176697 -4.8503876 6.740143 -4.8503876l0 0c3.7225037 0 6.7401733 2.1715927 6.7401733 4.8503876l0 0c0 2.6788025 -3.0176697 4.850395 -6.7401733 4.850395l0 0c-3.7224731 0 -6.740143 -2.1715927 -6.740143 -4.850395z" fill-rule="evenodd"/><path fill="#000000" d="m168.43045 96.45932l0 0c0 2.1047668 1.6992035 3.81102 3.7952728 3.81102l0 0c1.0065613 0 1.9719086 -0.40151978 2.68367 -1.1162186c0.7117462 -0.7147064 1.1116028 -1.6840591 1.1116028 -2.6948013l0 0c0 -2.1047745 -1.6992035 -3.8110275 -3.7952728 -3.8110275l0 0c-2.0960693 0 -3.7952728 1.706253 -3.7952728 3.8110275z" fill-rule="evenodd"/><path stroke="#000000" stroke-width="1.0" stroke-linejoin="round" stroke-linecap="butt" d="m168.43045 96.45932l0 0c0 2.1047668 1.6992035 3.81102 3.7952728 3.81102l0 0c1.0065613 0 1.9719086 -0.40151978 2.68367 -1.1162186c0.7117462 -0.7147064 1.1116028 -1.6840591 1.1116028 -2.6948013l0 0c0 -2.1047745 -1.6992035 -3.8110275 -3.7952728 -3.8110275l0 0c-2.0960693 0 -3.7952728 1.706253 -3.7952728 3.8110275z" fill-rule="evenodd"/><path fill="#000000" d="m220.16273 165.0l0 0c0 2.1047668 1.6992035 3.81102 3.7952728 3.81102l0 0c1.0065613 0 1.9719086 -0.40151978 2.68367 -1.1162262c0.7117462 -0.71469116 1.1116028 -1.6840515 1.1116028 -2.6947937l0 0c0 -2.1047668 -1.6992035 -3.81102 -3.7952728 -3.81102l0 0c-2.0960693 0 -3.7952728 1.706253 -3.7952728 3.81102z" fill-rule="evenodd"/><path stroke="#000000" stroke-width="1.0" stroke-linejoin="round" stroke-linecap="butt" d="m220.16273 165.0l0 0c0 2.1047668 1.6992035 3.81102 3.7952728 3.81102l0 0c1.0065613 0 1.9719086 -0.40151978 2.68367 -1.1162262c0.7117462 -0.71469116 1.1116028 -1.6840515 1.1116028 -2.6947937l0 0c0 -2.1047668 -1.6992035 -3.81102 -3.7952728 -3.81102l0 0c-2.0960693 0 -3.7952728 1.706253 -3.7952728 3.81102z" fill-rule="evenodd"/><path fill="#000000" d="m207.38583 121.29396l0 0c0 2.1047745 1.6991882 3.8110275 3.7952728 3.8110275l0 0c1.0065613 0 1.9719086 -0.40151978 2.6836548 -1.1162262c0.7117615 -0.7147064 1.111618 -1.6840515 1.111618 -2.6948013l0 0c0 -2.1047668 -1.6992035 -3.81102 -3.7952728 -3.81102l0 0c-2.0960846 0 -3.7952728 1.706253 -3.7952728 3.81102z" fill-rule="evenodd"/><path stroke="#000000" stroke-width="1.0" stroke-linejoin="round" stroke-linecap="butt" d="m207.38583 121.29396l0 0c0 2.1047745 1.6991882 3.8110275 3.7952728 3.8110275l0 0c1.0065613 0 1.9719086 -0.40151978 2.6836548 -1.1162262c0.7117615 -0.7147064 1.111618 -1.6840515 1.111618 -2.6948013l0 0c0 -2.1047668 -1.6992035 -3.81102 -3.7952728 -3.81102l0 0c-2.0960846 0 -3.7952728 1.706253 -3.7952728 3.81102z" fill-rule="evenodd"/><path fill="#000000" fill-opacity="0.0" d="m122.976 70.01837l56.503937 0l0 35.55906l-56.503937 0z" fill-rule="evenodd"/><path fill="#000000" d="m132.96037 91.818375l0 -9.546875l1.90625 0l2.25 6.765625q0.3125 0.9375 0.46875 1.40625q0.15625 -0.515625 0.5 -1.53125l2.28125 -6.640625l1.703125 0l0 9.546875l-1.21875 0l0 -7.984375l-2.765625 7.984375l-1.140625 0l-2.765625 -8.125l0 8.125l-1.21875 0zm13.243057 2.8125q-0.984375 -1.234375 -1.65625 -2.875q-0.65625 -1.640625 -0.65625 -3.390625q0 -1.546875 0.5 -2.96875q0.578125 -1.640625 1.8125 -3.28125l0.828125 0q-0.78125 1.359375 -1.03125 1.9375q-0.40625 0.890625 -0.625 1.875q-0.28125 1.21875 -0.28125 2.4375q0 3.140625 1.9375 6.265625l-0.828125 0zm4.7508698 -3.859375l0.171875 1.03125q-0.5 0.109375 -0.890625 0.109375q-0.640625 0 -1.0 -0.203125q-0.34375 -0.203125 -0.484375 -0.53125q-0.140625 -0.328125 -0.140625 -1.390625l0 -3.96875l-0.859375 0l0 -0.90625l0.859375 0l0 -1.71875l1.171875 -0.703125l0 2.421875l1.171875 0l0 0.90625l-1.171875 0l0 4.046875q0 0.5 0.046875 0.640625q0.0625 0.140625 0.203125 0.234375q0.140625 0.078125 0.40625 0.078125q0.203125 0 0.515625 -0.046875z" fill-rule="nonzero"/><path fill="#000000" d="m154.53229 96.818375l-0.78125 0l0 -4.96875q-0.28125 0.265625 -0.75 0.53125q-0.453125 0.265625 -0.8125 0.40625l0 -0.75q0.65625 -0.3125 1.140625 -0.75q0.484375 -0.4375 0.6875 -0.84375l0.515625 0l0 6.375z" fill-rule="nonzero"/><path fill="#000000" d="m157.79619 94.630875l-0.828125 0q1.9375 -3.125 1.9375 -6.265625q0 -1.21875 -0.28125 -2.421875q-0.21875 -0.984375 -0.609375 -1.875q-0.265625 -0.59375 -1.046875 -1.953125l0.828125 0q1.234375 1.640625 1.8125 3.28125q0.5 1.421875 0.5 2.96875q0 1.75 -0.671875 3.390625q-0.671875 1.640625 -1.640625 2.875z" fill-rule="nonzero"/><path fill="#000000" fill-opacity="0.0" d="m184.34908 162.50919l63.65355 0l0 35.55905l-63.65355 0z" fill-rule="evenodd"/><path fill="#000000" d="m194.33345 184.30919l0 -9.546875l1.90625 0l2.25 6.765625q0.3125 0.9375 0.46875 1.40625q0.15625 -0.515625 0.5 -1.53125l2.28125 -6.640625l1.703125 0l0 9.546875l-1.21875 0l0 -7.984375l-2.765625 7.984375l-1.140625 0l-2.765625 -8.125l0 8.125l-1.21875 0zm13.243057 2.8125q-0.984375 -1.234375 -1.65625 -2.875q-0.65625 -1.640625 -0.65625 -3.390625q0 -1.546875 0.5 -2.96875q0.578125 -1.640625 1.8125 -3.28125l0.828125 0q-0.78125 1.359375 -1.03125 1.9375q-0.40625 0.890625 -0.625 1.875q-0.28125 1.21875 -0.28125 2.4375q0 3.140625 1.9375 6.265625l-0.828125 0zm4.7508698 -3.859375l0.171875 1.03125q-0.5 0.109375 -0.890625 0.109375q-0.640625 0 -1.0 -0.203125q-0.34375 -0.203125 -0.484375 -0.53125q-0.140625 -0.328125 -0.140625 -1.390625l0 -3.96875l-0.859375 0l0 -0.90625l0.859375 0l0 -1.71875l1.171875 -0.703125l0 2.421875l1.171875 0l0 0.90625l-1.171875 0l0 4.046875q0 0.5 0.046875 0.640625q0.0625 0.140625 0.203125 0.234375q0.140625 0.078125 0.40625 0.078125q0.203125 0 0.515625 -0.046875z" fill-rule="nonzero"/><path fill="#000000" d="m212.96786 187.63731l0.78125 -0.109375q0.125 0.65625 0.453125 0.953125q0.328125 0.296875 0.78125 0.296875q0.5625 0 0.9375 -0.375q0.375 -0.390625 0.375 -0.953125q0 -0.53125 -0.359375 -0.875q-0.34375 -0.359375 -0.875 -0.359375q-0.234375 0 -0.5625 0.09375l0.09375 -0.6875q0.078125 0 0.125 0q0.5 0 0.890625 -0.25q0.40625 -0.265625 0.40625 -0.8125q0 -0.421875 -0.296875 -0.703125q-0.28125 -0.28125 -0.75 -0.28125q-0.453125 0 -0.765625 0.28125q-0.296875 0.28125 -0.375 0.859375l-0.78125 -0.140625q0.140625 -0.78125 0.640625 -1.203125q0.515625 -0.4375 1.265625 -0.4375q0.515625 0 0.953125 0.21875q0.4375 0.21875 0.671875 0.609375q0.234375 0.390625 0.234375 0.8125q0 0.421875 -0.21875 0.765625q-0.21875 0.328125 -0.65625 0.53125q0.5625 0.125 0.875 0.546875q0.3125 0.40625 0.3125 1.015625q0 0.828125 -0.609375 1.40625q-0.609375 0.578125 -1.53125 0.578125q-0.828125 0 -1.390625 -0.5q-0.546875 -0.5 -0.625 -1.28125z" fill-rule="nonzero"/><path fill="#000000" d="m219.16927 187.12169l-0.828125 0q1.9375 -3.125 1.9375 -6.265625q0 -1.21875 -0.28125 -2.421875q-0.21875 -0.984375 -0.609375 -1.875q-0.265625 -0.59375 -1.046875 -1.953125l0.828125 0q1.234375 1.640625 1.8125 3.28125q0.5 1.421875 0.5 2.96875q0 1.75 -0.671875 3.390625q-0.671875 1.640625 -1.640625 2.875z" fill-rule="nonzero"/><path fill="#000000" fill-opacity="0.0" d="m211.61679 99.87664l60.094482 0l0 35.55906l-60.094482 0z" fill-rule="evenodd"/><path fill="#000000" d="m221.60117 121.67664l0 -9.546875l1.90625 0l2.25 6.765625q0.3125 0.9375 0.46875 1.40625q0.15625 -0.515625 0.5 -1.53125l2.28125 -6.640625l1.703125 0l0 9.546875l-1.21875 0l0 -7.984375l-2.765625 7.984375l-1.140625 0l-2.765625 -8.125l0 8.125l-1.21875 0zm13.243057 2.8125q-0.984375 -1.234375 -1.65625 -2.875q-0.65625 -1.640625 -0.65625 -3.390625q0 -1.546875 0.5 -2.96875q0.578125 -1.640625 1.8125 -3.28125l0.828125 0q-0.78125 1.359375 -1.03125 1.9375q-0.40625 0.890625 -0.625 1.875q-0.28125 1.21875 -0.28125 2.4375q0 3.140625 1.9375 6.265625l-0.828125 0zm4.7508698 -3.859375l0.171875 1.03125q-0.5 0.109375 -0.890625 0.109375q-0.640625 0 -1.0 -0.203125q-0.34375 -0.203125 -0.484375 -0.53125q-0.140625 -0.328125 -0.140625 -1.390625l0 -3.96875l-0.859375 0l0 -0.90625l0.859375 0l0 -1.71875l1.171875 -0.703125l0 2.421875l1.171875 0l0 0.90625l-1.171875 0l0 4.046875q0 0.5 0.046875 0.640625q0.0625 0.140625 0.203125 0.234375q0.140625 0.078125 0.40625 0.078125q0.203125 0 0.515625 -0.046875z" fill-rule="nonzero"/><path fill="#000000" d="m244.32933 125.92664l0 0.75l-4.203125 0q0 -0.28125 0.09375 -0.546875q0.15625 -0.421875 0.5 -0.828125q0.359375 -0.421875 1.03125 -0.96875q1.03125 -0.859375 1.390625 -1.34375q0.375 -0.5 0.375 -0.9375q0 -0.46875 -0.328125 -0.78125q-0.328125 -0.328125 -0.859375 -0.328125q-0.578125 0 -0.921875 0.34375q-0.328125 0.328125 -0.328125 0.9375l-0.796875 -0.09375q0.078125 -0.890625 0.609375 -1.359375q0.546875 -0.46875 1.453125 -0.46875q0.90625 0 1.4375 0.515625q0.53125 0.5 0.53125 1.25q0 0.375 -0.15625 0.75q-0.15625 0.359375 -0.515625 0.765625q-0.359375 0.40625 -1.203125 1.125q-0.703125 0.59375 -0.90625 0.796875q-0.1875 0.203125 -0.3125 0.421875l3.109375 0z" fill-rule="nonzero"/><path fill="#000000" d="m246.43698 124.48914l-0.828125 0q1.9375 -3.125 1.9375 -6.265625q0 -1.21875 -0.28125 -2.421875q-0.21875 -0.984375 -0.609375 -1.875q-0.265625 -0.59375 -1.046875 -1.953125l0.828125 0q1.234375 1.640625 1.8125 3.28125q0.5 1.421875 0.5 2.96875q0 1.75 -0.671875 3.390625q-0.671875 1.640625 -1.640625 2.875z" fill-rule="nonzero"/><path fill="#000000" fill-opacity="0.0" d="m211.61679 117.656166l-43.18109 40.62992" fill-rule="evenodd"/><path stroke="#ff0000" stroke-width="1.0" stroke-linejoin="round" stroke-linecap="butt" d="m211.61679 117.656166l-38.811325 36.518333" fill-rule="evenodd"/><path fill="#ff0000" stroke="#ff0000" stroke-width="1.0" stroke-linecap="butt" d="m171.67358 152.97156l-2.1731873 4.312744l4.4369354 -1.9068604z" fill-rule="evenodd"/><path fill="#000000" fill-opacity="0.0" d="m122.97638 128.19685l52.59842 0l0 35.55905l-52.59842 0z" fill-rule="evenodd"/><path fill="#ff0000" d="m137.367 149.13748q-0.65625 0.5625 -1.265625 0.796875q-0.59375 0.21875 -1.28125 0.21875q-1.140625 0 -1.75 -0.546875q-0.609375 -0.5625 -0.609375 -1.4375q0 -0.5 0.21875 -0.921875q0.234375 -0.421875 0.609375 -0.671875q0.375 -0.25 0.84375 -0.390625q0.34375 -0.078125 1.046875 -0.171875q1.421875 -0.171875 2.09375 -0.40625q0 -0.234375 0 -0.296875q0 -0.71875 -0.328125 -1.015625q-0.453125 -0.390625 -1.34375 -0.390625q-0.8125 0 -1.21875 0.296875q-0.390625 0.28125 -0.578125 1.015625l-1.140625 -0.15625q0.15625 -0.734375 0.515625 -1.1875q0.359375 -0.453125 1.03125 -0.6875q0.671875 -0.25 1.5625 -0.25q0.890625 0 1.4375 0.203125q0.5625 0.203125 0.8125 0.53125q0.265625 0.3125 0.375 0.796875q0.046875 0.296875 0.046875 1.078125l0 1.5625q0 1.625 0.078125 2.0625q0.078125 0.4375 0.296875 0.828125l-1.21875 0q-0.1875 -0.359375 -0.234375 -0.859375zm-0.09375 -2.609375q-0.640625 0.265625 -1.921875 0.4375q-0.71875 0.109375 -1.015625 0.25q-0.296875 0.125 -0.46875 0.375q-0.15625 0.25 -0.15625 0.546875q0 0.46875 0.34375 0.78125q0.359375 0.3125 1.046875 0.3125q0.671875 0 1.203125 -0.296875q0.53125 -0.296875 0.78125 -0.8125q0.1875 -0.390625 0.1875 -1.171875l0 -0.421875z" fill-rule="nonzero"/><path fill="#ff0000" d="m140.0451 154.99686l0 -6.359375l1.265625 0l1.5 4.5q0.21875 0.640625 0.3125 0.9375q0.109375 -0.34375 0.328125 -1.015625l1.53125 -4.421875l1.125 0l0 6.359375l-0.8125 0l0 -5.3125l-1.84375 5.3125l-0.75 0l-1.84375 -5.40625l0 5.40625l-0.8125 0z" fill-rule="nonzero"/><path fill="#ff0000" d="m149.90668 152.80936q-0.984375 -1.234375 -1.65625 -2.875q-0.65625 -1.640625 -0.65625 -3.390625q0 -1.546875 0.5 -2.96875q0.578125 -1.640625 1.8125 -3.28125l0.828125 0q-0.78125 1.359375 -1.03125 1.9375q-0.40625 0.890625 -0.625 1.875q-0.28125 1.21875 -0.28125 2.4375q0 3.140625 1.9375 6.265625l-0.828125 0zm4.7508698 -3.859375l0.171875 1.03125q-0.5 0.109375 -0.890625 0.109375q-0.640625 0 -1.0 -0.203125q-0.34375 -0.203125 -0.484375 -0.53125q-0.140625 -0.328125 -0.140625 -1.390625l0 -3.96875l-0.859375 0l0 -0.90625l0.859375 0l0 -1.71875l1.171875 -0.703125l0 2.421875l1.171875 0l0 0.90625l-1.171875 0l0 4.046875q0 0.5 0.046875 0.640625q0.0625 0.140625 0.203125 0.234375q0.140625 0.078125 0.40625 0.078125q0.203125 0 0.515625 -0.046875z" fill-rule="nonzero"/><path fill="#ff0000" d="m159.39178 154.24686l0 0.75l-4.203125 0q0 -0.28125 0.09375 -0.546875q0.15625 -0.421875 0.5 -0.828125q0.359375 -0.421875 1.03125 -0.96875q1.03125 -0.859375 1.390625 -1.34375q0.375 -0.5 0.375 -0.9375q0 -0.46875 -0.328125 -0.78125q-0.328125 -0.328125 -0.859375 -0.328125q-0.578125 0 -0.921875 0.34375q-0.328125 0.328125 -0.328125 0.9375l-0.796875 -0.09375q0.078125 -0.890625 0.609375 -1.359375q0.546875 -0.46875 1.453125 -0.46875q0.90625 0 1.4375 0.515625q0.53125 0.5 0.53125 1.25q0 0.375 -0.15625 0.75q-0.15625 0.359375 -0.515625 0.765625q-0.359375 0.40625 -1.203125 1.125q-0.703125 0.59375 -0.90625 0.796875q-0.1875 0.203125 -0.3125 0.421875l3.109375 0z" fill-rule="nonzero"/><path fill="#ff0000" d="m161.49944 152.80936l-0.828125 0q1.9375 -3.125 1.9375 -6.265625q0 -1.21875 -0.28125 -2.421875q-0.21875 -0.984375 -0.609375 -1.875q-0.265625 -0.59375 -1.046875 -1.953125l0.828125 0q1.234375 1.640625 1.8125 3.28125q0.5 1.421875 0.5 2.96875q0 1.75 -0.671875 3.390625q-0.671875 1.640625 -1.640625 2.875z" fill-rule="nonzero"/><path fill="#000000" fill-opacity="0.0" d="m127.79527 128.6693l21.480316 -0.47244263" fill-rule="evenodd"/><path stroke="#ff0000" stroke-width="1.0" stroke-linejoin="round" stroke-linecap="butt" d="m127.79527 128.6693l15.481781 -0.34051514" fill-rule="evenodd"/><path fill="#ff0000" stroke="#ff0000" stroke-width="1.0" stroke-linecap="butt" d="m143.31335 129.98012l4.5006866 -1.7511292l-4.5733185 -1.5515366z" fill-rule="evenodd"/></g></svg>