<svg version="1.1" viewBox="0.0 0.0 404.6509186351706 385.11548556430444" fill="none" stroke="none" stroke-linecap="square" stroke-miterlimit="10" xmlns:xlink="http://www.w3.org/1999/xlink" xmlns="http://www.w3.org/2000/svg"><clipPath id="p.0"><path d="m0 0l404.6509 0l0 385.11548l-404.6509 0l0 -385.11548z" clip-rule="nonzero"/></clipPath><g clip-path="url(#p.0)"><path fill="#000000" fill-opacity="0.0" d="m0 0l404.6509 0l0 385.11548l-404.6509 0z" fill-rule="evenodd"/><path fill="#ffffff" d="m-2.7900262 -1.3963255l408.8504 0l0 385.13385l-408.8504 0z" fill-rule="evenodd"/><path fill="#000000" fill-opacity="0.0" d="m104.48819 274.65616l0.75590515 -250.77164" fill-rule="evenodd"/><path stroke="#000000" stroke-width="1.0" stroke-linejoin="round" stroke-linecap="butt" d="m104.48819 274.65616l0.73781586 -244.77167" fill-rule="evenodd"/><path fill="#000000" stroke="#000000" stroke-width="1.0" stroke-linecap="butt" d="m106.87773 29.889465l-1.6380463 -4.5430546l-1.6653976 4.533098z" fill-rule="evenodd"/><path fill="#000000" fill-opacity="0.0" d="m104.48819 274.65616l279.1496 0.7559204" fill-rule="evenodd"/><path stroke="#000000" stroke-width="1.0" stroke-linejoin="round" stroke-linecap="butt" d="m104.48819 274.65616l273.14966 0.73968506" fill-rule="evenodd"/><path fill="#000000" stroke="#000000" stroke-width="1.0" stroke-linecap="butt" d="m377.63333 277.04755l4.542572 -1.6394348l-4.5336 -1.6640015z" fill-rule="evenodd"/><path fill="#000000" fill-opacity="0.0" d="m104.48819 274.65616l-68.66142 77.63782" fill-rule="evenodd"/><path stroke="#000000" stroke-width="1.0" stroke-linejoin="round" stroke-linecap="butt" d="m104.48819 274.65616l-64.68657 73.14331" fill-rule="evenodd"/><path fill="#000000" stroke="#000000" stroke-width="1.0" stroke-linecap="butt" d="m38.56434 346.70523l-1.7690926 4.4936523l4.243664 -2.3051758z" fill-rule="evenodd"/><path fill="#000000" fill-opacity="0.0" d="m73.14173 33.5853l26.866142 0l0 42.01575l-26.866142 0z" fill-rule="evenodd"/><path fill="#000000" d="m82.50111 60.5053l0 -1.328125l6.15625 -7.078125q-1.046875 0.0625 -1.84375 0.0625l-3.9375 0l0 -1.328125l7.90625 0l0 1.078125l-5.25 6.140625l-1.0 1.125q1.09375 -0.078125 2.0625 -0.078125l4.46875 0l0 1.40625l-8.5625 0z" fill-rule="nonzero"/><path fill="#000000" fill-opacity="0.0" d="m344.06824 274.65616l26.86615 0l0 42.015747l-26.86615 0z" fill-rule="evenodd"/><path fill="#000000" d="m354.2245 305.29492l-0.1875 -1.53125q0.546875 0.140625 0.9375 0.140625q0.546875 0 0.875 -0.1875q0.328125 -0.171875 0.546875 -0.5q0.15625 -0.25 0.5 -1.21875q0.046875 -0.140625 0.140625 -0.40625l-3.671875 -9.6875l1.765625 0l2.015625 5.59375q0.390625 1.078125 0.703125 2.25q0.28125 -1.125 0.671875 -2.203125l2.078125 -5.640625l1.640625 0l-3.6875 9.828125q-0.59375 1.609375 -0.921875 2.203125q-0.4375 0.8125 -1.0 1.1875q-0.5625 0.375 -1.34375 0.375q-0.484375 0 -1.0625 -0.203125z" fill-rule="nonzero"/><path fill="#000000" fill-opacity="0.0" d="m67.91863 339.58792l22.3937 0l0 42.015747l-22.3937 0z" fill-rule="evenodd"/><path fill="#000000" d="m77.05926 366.50793l3.53125 -5.03125l-3.265625 -4.640625l2.046875 0l1.484375 2.265625q0.421875 0.640625 0.671875 1.078125q0.40625 -0.59375 0.734375 -1.0625l1.640625 -2.28125l1.953125 0l-3.34375 4.546875l3.59375 5.125l-2.015625 0l-1.984375 -3.0l-0.515625 -0.8125l-2.546875 3.8125l-1.984375 0z" fill-rule="nonzero"/><path fill="#000000" fill-opacity="0.0" d="m158.97113 116.43009c1.8009644 -10.780518 10.825378 -23.085716 21.64566 -24.629921c8.616959 -1.2297516 18.854218 5.4824066 22.391083 13.435699c12.851379 28.898666 20.412842 59.89833 29.107605 90.30708c5.6931763 19.911087 2.5218658 45.06517 17.16536 59.708664" fill-rule="evenodd"/><path stroke="#4a86e8" stroke-width="2.0" stroke-linejoin="round" stroke-linecap="butt" d="m158.97113 116.43009c1.8009644 -10.780518 10.825378 -23.085716 21.64566 -24.629921c8.616959 -1.2297516 18.854218 5.4824066 22.391083 13.435699c12.851379 28.898666 20.412842 59.89833 29.107605 90.30708c5.6931763 19.911087 2.5218658 45.06517 17.16536 59.708664" fill-rule="evenodd"/><path fill="#000000" fill-opacity="0.0" d="m250.02625 256.74216c7.0010376 18.67218 13.921692 56.31131 32.839905 50.00525c13.731354 -4.577118 16.73941 -24.199036 20.897644 -38.06299c6.9046326 -23.020935 12.575104 -49.922623 31.346436 -64.93176c8.011078 -6.405487 18.60559 10.608276 23.881897 19.40419" fill-rule="evenodd"/><path stroke="#4a86e8" stroke-width="2.0" stroke-linejoin="round" stroke-linecap="butt" d="m250.02625 256.74216c7.0010376 18.67218 13.921692 56.31131 32.839905 50.00525c13.731354 -4.577118 16.73941 -24.199036 20.897644 -38.06299c6.9046326 -23.020935 12.575104 -49.922623 31.346436 -64.93176c8.011078 -6.405487 18.60559 10.608276 23.881897 19.40419" fill-rule="evenodd"/><path fill="#000000" fill-opacity="0.0" d="m105.98163 273.91077l114.20473 -120.157486" fill-rule="evenodd"/><path stroke="#ff0000" stroke-width="2.0" stroke-linejoin="round" stroke-linecap="butt" stroke-dasharray="2.0,6.0" d="m105.98163 273.91077l109.48271 -115.18935" fill-rule="evenodd"/><path fill="#ff0000" stroke="#ff0000" stroke-width="2.0" stroke-linecap="butt" d="m215.46434 158.72142l0.08076477 3.1797638l2.6269684 -6.0286255l-5.887497 2.9296265z" fill-rule="evenodd"/><path fill="#000000" fill-opacity="0.0" d="m219.4252 153.74803l-113.44882 -55.244095" fill-rule="evenodd"/><path stroke="#00ff00" stroke-width="2.0" stroke-linejoin="round" stroke-linecap="butt" stroke-dasharray="2.0,6.0" d="m219.4252 153.74803l-113.44882 -55.244095" fill-rule="evenodd"/><path fill="#000000" fill-opacity="0.0" d="m219.4252 153.75328l0.75590515 170.17323" fill-rule="evenodd"/><path stroke="#00ff00" stroke-width="2.0" stroke-linejoin="round" stroke-linecap="butt" stroke-dasharray="2.0,6.0" d="m219.4252 153.75328l0.75590515 170.17323" fill-rule="evenodd"/><path fill="#000000" fill-opacity="0.0" d="m220.91864 326.90027l-159.71654 -2.9921265" fill-rule="evenodd"/><path stroke="#00ff00" stroke-width="2.0" stroke-linejoin="round" stroke-linecap="butt" stroke-dasharray="2.0,6.0" d="m220.91864 326.90027l-159.71654 -2.9921265" fill-rule="evenodd"/><path fill="#000000" fill-opacity="0.0" d="m67.91863 73.34908l46.267715 0l0 35.55905l-46.267715 0z" fill-rule="evenodd"/><path fill="#000000" d="m77.18426 95.14908l0 -0.953125l4.390625 -5.046875q-0.75 0.03125 -1.3125 0.03125l-2.828125 0l0 -0.9375l5.65625 0l0 0.765625l-3.75 4.390625l-0.71875 0.796875q0.796875 -0.0625 1.484375 -0.0625l3.1875 0l0 1.015625l-6.109375 0zm9.5234375 2.8125q-0.984375 -1.234375 -1.65625 -2.875q-0.65625 -1.640625 -0.65625 -3.390625q0 -1.546875 0.5 -2.96875q0.578125 -1.640625 1.8125 -3.28125l0.828125 0q-0.78125 1.359375 -1.03125 1.9375q-0.40625 0.890625 -0.625 1.875q-0.28125 1.21875 -0.28125 2.4375q0 3.140625 1.9375 6.265625l-0.828125 0zm4.7508698 -3.859375l0.171875 1.03125q-0.5 0.109375 -0.890625 0.109375q-0.640625 0 -1.0 -0.203125q-0.34375 -0.203125 -0.484375 -0.53125q-0.140625 -0.328125 -0.140625 -1.390625l0 -3.96875l-0.859375 0l0 -0.90625l0.859375 0l0 -1.71875l1.171875 -0.703125l0 2.421875l1.171875 0l0 0.90625l-1.171875 0l0 4.046875q0 0.5 0.046875 0.640625q0.0625 0.140625 0.203125 0.234375q0.140625 0.078125 0.40625 0.078125q0.203125 0 0.515625 -0.046875zm1.9061127 3.859375l-0.828125 0q1.9375 -3.125 1.9375 -6.265625q0 -1.21875 -0.28125 -2.421875q-0.21875 -0.984375 -0.609375 -1.875q-0.265625 -0.59375 -1.046875 -1.953125l0.828125 0q1.234375 1.640625 1.8125 3.28125q0.5 1.421875 0.5 2.96875q0 1.75 -0.671875 3.390625q-0.671875 1.640625 -1.640625 2.875z" fill-rule="nonzero"/><path fill="#000000" fill-opacity="0.0" d="m184.34908 247.04199l42.551193 0l0 37.165344l-42.551193 0z" fill-rule="evenodd"/><path fill="#000000" fill-opacity="0.0" d="m181.34645 243.30971l42.551193 0l0 35.559067l-42.551193 0z" fill-rule="evenodd"/><path fill="#000000" d="m191.17458 267.76596l-0.125 -1.09375q0.375 0.109375 0.65625 0.109375q0.390625 0 0.625 -0.140625q0.234375 -0.125 0.390625 -0.359375q0.109375 -0.171875 0.359375 -0.875q0.03125 -0.09375 0.109375 -0.28125l-2.625 -6.921875l1.265625 0l1.4375 4.0q0.28125 0.765625 0.5 1.59375q0.203125 -0.796875 0.46875 -1.578125l1.484375 -4.015625l1.171875 0l-2.625 7.015625q-0.421875 1.140625 -0.65625 1.578125q-0.3125 0.578125 -0.71875 0.84375q-0.40625 0.28125 -0.96875 0.28125q-0.328125 0 -0.75 -0.15625zm8.9609375 0.15625q-0.984375 -1.234375 -1.65625 -2.875q-0.65625 -1.640625 -0.65625 -3.390625q0 -1.546875 0.5 -2.96875q0.578125 -1.640625 1.8125 -3.28125l0.828125 0q-0.78125 1.359375 -1.03125 1.9375q-0.40625 0.890625 -0.625 1.875q-0.28125 1.21875 -0.28125 2.4375q0 3.140625 1.9375 6.265625l-0.828125 0zm4.7508698 -3.859375l0.171875 1.03125q-0.5 0.109375 -0.890625 0.109375q-0.640625 0 -1.0 -0.203125q-0.34375 -0.203125 -0.484375 -0.53125q-0.140625 -0.328125 -0.140625 -1.390625l0 -3.96875l-0.859375 0l0 -0.90625l0.859375 0l0 -1.71875l1.171875 -0.703125l0 2.421875l1.171875 0l0 0.90625l-1.171875 0l0 4.046875q0 0.5 0.046875 0.640625q0.0625 0.140625 0.203125 0.234375q0.140625 0.078125 0.40625 0.078125q0.203125 0 0.515625 -0.046875zm1.9061127 3.859375l-0.828125 0q1.9375 -3.125 1.9375 -6.265625q0 -1.21875 -0.28125 -2.421875q-0.21875 -0.984375 -0.609375 -1.875q-0.265625 -0.59375 -1.046875 -1.953125l0.828125 0q1.234375 1.640625 1.8125 3.28125q0.5 1.421875 0.5 2.96875q0 1.75 -0.671875 3.390625q-0.671875 1.640625 -1.640625 2.875z" fill-rule="nonzero"/><path fill="#000000" fill-opacity="0.0" d="m26.868767 300.77692l50.015747 0l0 35.55905l-50.015747 0z" fill-rule="evenodd"/><path fill="#000000" d="m35.962517 322.5769l2.53125 -3.59375l-2.34375 -3.3125l1.46875 0l1.0625 1.609375q0.296875 0.46875 0.484375 0.78125q0.28125 -0.4375 0.515625 -0.765625l1.171875 -1.625l1.40625 0l-2.390625 3.25l2.5625 3.65625l-1.4375 0l-1.421875 -2.140625l-0.375 -0.59375l-1.8125 2.734375l-1.421875 0zm9.6953125 2.8125q-0.984375 -1.234375 -1.65625 -2.875q-0.65625 -1.640625 -0.65625 -3.390625q0 -1.546875 0.5 -2.96875q0.578125 -1.640625 1.8125 -3.28125l0.828125 0q-0.78125 1.359375 -1.03125 1.9375q-0.40625 0.890625 -0.625 1.875q-0.28125 1.21875 -0.28125 2.4375q0 3.140625 1.9375 6.265625l-0.828125 0zm4.7508698 -3.859375l0.171875 1.03125q-0.5 0.109375 -0.890625 0.109375q-0.640625 0 -1.0 -0.203125q-0.34375 -0.203125 -0.484375 -0.53125q-0.140625 -0.328125 -0.140625 -1.390625l0 -3.96875l-0.859375 0l0 -0.90625l0.859375 0l0 -1.71875l1.171875 -0.703125l0 2.421875l1.171875 0l0 0.90625l-1.171875 0l0 4.046875q0 0.5 0.046875 0.640625q0.0625 0.140625 0.203125 0.234375q0.140625 0.078125 0.40625 0.078125q0.203125 0 0.515625 -0.046875zm1.9061127 3.859375l-0.828125 0q1.9375 -3.125 1.9375 -6.265625q0 -1.21875 -0.28125 -2.421875q-0.21875 -0.984375 -0.609375 -1.875q-0.265625 -0.59375 -1.046875 -1.953125l0.828125 0q1.234375 1.640625 1.8125 3.28125q0.5 1.421875 0.5 2.96875q0 1.75 -0.671875 3.390625q-0.671875 1.640625 -1.640625 2.875z" fill-rule="nonzero"/><path fill="#000000" fill-opacity="0.0" d="m121.585785 185.34267l57.448822 -26.992126l15.118103 32.188965l-57.448807 26.992126z" fill-rule="evenodd"/><path fill="#ff0000" d="m137.60599 196.77464q-1.0096436 -2.149704 -0.42126465 -3.910843q0.58839417 -1.7611237 2.4126892 -2.6182709q1.187912 -0.558136 2.4152527 -0.44424438q1.2273407 0.1138916 2.207199 0.9137573q0.9873657 0.77908325 1.598465 2.0802155q0.61109924 1.3011322 0.5652466 2.6001892q-0.038345337 1.2782745 -0.76171875 2.27417q-0.71588135 0.9751129 -1.847229 1.5066681q-1.2162018 0.5714264 -2.45018 0.44340515q-1.2406311 -0.1421814 -2.2138367 -0.9279022q-0.9732208 -0.7857208 -1.5046234 -1.9171448zm1.1945648 -0.5439911q0.7306671 1.5556946 1.9901428 2.0688171q1.2528381 0.49897766 2.5256042 -0.09902954q1.286911 -0.6046448 1.696167 -1.9018097q0.40925598 -1.2971649 -0.3745575 -2.9660187q-0.49153137 -1.0465698 -1.2312012 -1.6658173q-0.7255249 -0.625885 -1.6177368 -0.72457886q-0.88471985 -0.11949158 -1.7332306 0.2791748q-1.2162018 0.5714264 -1.7010956 1.81781q-0.4707489 1.2397308 0.4459076 3.191452zm10.472336 0.18966675l-4.0585175 -8.641266l1.7253113 -0.81062317l4.9125824 5.1670227q0.6813812 0.715683 1.0220795 1.0735321q-0.07778931 -0.53315735 -0.1984253 -1.5986328l-0.75831604 -6.980774l1.5414581 -0.7242584l4.0585175 8.641251l-1.1030579 0.51828l-3.3942719 -7.2269745l0.89115906 8.403046l-1.0323486 0.4850464l-5.9571533 -6.178177l3.4540558 7.354248l-1.1030731 0.51828zm13.181625 -3.0858765q-1.4156799 -0.6986847 -2.7212372 -1.8979645q-1.2914124 -1.2059174 -2.0353546 -2.789917q-0.65760803 -1.4001312 -0.80952454 -2.8997498q-0.1742096 -1.7308502 0.24554443 -3.7407532l0.7495117 -0.3521576q-0.12919617 1.5626526 -0.109695435 2.1922455q0.010925293 0.9788971 0.2314148 1.9629059q0.2635498 1.2227478 0.781662 2.325882q1.3351288 2.8427124 4.4171906 4.847351l-0.7495117 0.3521576zm2.6592255 -5.513565l0.5939636 0.8603363q-0.40603638 0.311615 -0.7595825 0.47773743q-0.5798187 0.27241516 -0.9914398 0.24139404q-0.39746094 -0.03768921 -0.66423035 -0.27488708q-0.2667694 -0.23719788 -0.7184601 -1.1988983l-1.6871643 -3.5922852l-0.7778015 0.365448l-0.3852539 -0.820282l0.77778625 -0.365448l-0.73065186 -1.5557098l0.76171875 -1.1347504l1.0295715 2.1921234l1.0606384 -0.4983368l0.38526917 0.820282l-1.0606384 0.4983368l1.7203827 3.6629944q0.21255493 0.45256042 0.3147583 0.55992126q0.11634827 0.10070801 0.28349304 0.12576294q0.16047668 0.010910034 0.40089417 -0.10205078q0.18383789 -0.086364746 0.44674683 -0.26168823zm3.36586 2.6827087l-0.7495117 0.3521576q0.4250946 -3.652481 -0.9100342 -6.4951935q-0.5180969 -1.1031342 -1.2841187 -2.072525q-0.6164551 -0.79797363 -1.3486176 -1.4380035q-0.49282837 -0.424469 -1.7778015 -1.3226776l0.7495117 -0.3521576q1.8146515 0.960083 3.0353546 2.199234q1.0570068 1.0743713 1.7145996 2.4745026q0.7439575 1.5839996 0.833313 3.3547058q0.08934021 1.7707062 -0.2626953 3.2999573z" fill-rule="nonzero"/><path fill="#000000" fill-opacity="0.0" d="m129.28084 191.06299l23.559052 -13.291336" fill-rule="evenodd"/><path stroke="#ff0000" stroke-width="1.0" stroke-linejoin="round" stroke-linecap="butt" d="m129.28084 191.06299l18.333328 -10.343124" fill-rule="evenodd"/><path fill="#ff0000" stroke="#ff0000" stroke-width="1.0" stroke-linecap="butt" d="m148.42578 182.15843l3.1408691 -3.6684418l-4.764084 0.791275z" fill-rule="evenodd"/><path fill="#000000" fill-opacity="0.0" d="m226.14436 126.879265l46.267715 0l0 35.55906l-46.267715 0z" fill-rule="evenodd"/><path fill="#000000" d="m236.12874 148.67926l0 -9.546875l1.90625 0l2.25 6.765625q0.3125 0.9375 0.46875 1.40625q0.15625 -0.515625 0.5 -1.53125l2.28125 -6.640625l1.703125 0l0 9.546875l-1.21875 0l0 -7.984375l-2.765625 7.984375l-1.140625 0l-2.765625 -8.125l0 8.125l-1.21875 0zm13.243057 2.8125q-0.984375 -1.234375 -1.65625 -2.875q-0.65625 -1.640625 -0.65625 -3.390625q0 -1.546875 0.5 -2.96875q0.578125 -1.640625 1.8125 -3.28125l0.828125 0q-0.78125 1.359375 -1.03125 1.9375q-0.40625 0.890625 -0.625 1.875q-0.28125 1.21875 -0.28125 2.4375q0 3.140625 1.9375 6.265625l-0.828125 0zm4.7508698 -3.859375l0.171875 1.03125q-0.5 0.109375 -0.890625 0.109375q-0.640625 0 -1.0 -0.203125q-0.34375 -0.203125 -0.484375 -0.53125q-0.140625 -0.328125 -0.140625 -1.390625l0 -3.96875l-0.859375 0l0 -0.90625l0.859375 0l0 -1.71875l1.171875 -0.703125l0 2.421875l1.171875 0l0 0.90625l-1.171875 0l0 4.046875q0 0.5 0.046875 0.640625q0.0625 0.140625 0.203125 0.234375q0.140625 0.078125 0.40625 0.078125q0.203125 0 0.515625 -0.046875zm1.9061127 3.859375l-0.828125 0q1.9375 -3.125 1.9375 -6.265625q0 -1.21875 -0.28125 -2.421875q-0.21875 -0.984375 -0.609375 -1.875q-0.265625 -0.59375 -1.046875 -1.953125l0.828125 0q1.234375 1.640625 1.8125 3.28125q0.5 1.421875 0.5 2.96875q0 1.75 -0.671875 3.390625q-0.671875 1.640625 -1.640625 2.875z" fill-rule="nonzero"/><path fill="#000000" fill-opacity="0.0" d="m104.48819 274.65616l-0.75590515 -32.094482" fill-rule="evenodd"/><path stroke="#000000" stroke-width="1.0" stroke-linejoin="round" stroke-linecap="butt" d="m104.48819 274.65616l-0.61463165 -26.096146" fill-rule="evenodd"/><path fill="#000000" stroke="#000000" stroke-width="1.0" stroke-linecap="butt" d="m105.52483 248.52112l-1.7581253 -4.49794l-1.544426 4.5757294z" fill-rule="evenodd"/><path fill="#000000" fill-opacity="0.0" d="m105.23622 274.65616l29.858261 0.7559204" fill-rule="evenodd"/><path stroke="#000000" stroke-width="1.0" stroke-linejoin="round" stroke-linecap="butt" d="m105.23622 274.65616l23.860184 0.60406494" fill-rule="evenodd"/><path fill="#000000" stroke="#000000" stroke-width="1.0" stroke-linecap="butt" d="m129.05461 276.91144l4.5784454 -1.536377l-4.4948425 -1.7660522z" fill-rule="evenodd"/><path fill="#000000" fill-opacity="0.0" d="m104.48819 274.65616l-14.173225 17.921265" fill-rule="evenodd"/><path stroke="#000000" stroke-width="1.0" stroke-linejoin="round" stroke-linecap="butt" d="m104.48819 274.65616l-10.45134 13.215149" fill-rule="evenodd"/><path fill="#000000" stroke="#000000" stroke-width="1.0" stroke-linecap="butt" d="m92.7413 286.8467l-1.5195007 4.584076l4.110588 -2.5348816z" fill-rule="evenodd"/><path fill="#000000" fill-opacity="0.0" d="m76.44357 241.81627l23.559052 0l0 35.559067l-23.559052 0z" fill-rule="evenodd"/><path fill="#000000" d="m86.44357 263.61627l0 -9.546875l1.921875 0l0 4.25l3.890625 -4.25l2.59375 0l-3.59375 3.71875l3.78125 5.828125l-2.484375 0l-2.625 -4.484375l-1.5625 1.59375l0 2.890625l-1.921875 0z" fill-rule="nonzero"/><path fill="#000000" fill-opacity="0.0" d="m114.937004 268.68503l20.157478 0l0 35.55905l-20.157478 0z" fill-rule="evenodd"/><path fill="#000000" d="m124.85888 282.6413l0 -1.703125l1.828125 0l0 1.703125l-1.828125 0zm1.828125 0.9375l0 6.6875q0 1.328125 -0.171875 1.859375q-0.171875 0.546875 -0.671875 0.859375q-0.484375 0.3125 -1.25 0.3125q-0.265625 0 -0.59375 -0.0625q-0.3125 -0.046875 -0.671875 -0.140625l0.3125 -1.5625q0.140625 0.03125 0.25 0.046875q0.109375 0.015625 0.203125 0.015625q0.28125 0 0.453125 -0.125q0.1875 -0.125 0.25 -0.296875q0.0625 -0.15625 0.0625 -1.0l0 -6.59375l1.828125 0z" fill-rule="nonzero"/><path fill="#000000" fill-opacity="0.0" d="m86.89239 278.38846l23.55906 0l0 42.015747l-23.55906 0z" fill-rule="evenodd"/><path fill="#000000" d="m97.23614 294.32407l0 -2.375l2.5625 0l0 2.375l-2.5625 0zm0 10.984375l0 -9.671875l2.5625 0l0 9.671875l-2.5625 0z" fill-rule="nonzero"/></g></svg>