<svg version="1.1" viewBox="0.0 0.0 404.6509186351706 385.11548556430444" fill="none" stroke="none" stroke-linecap="square" stroke-miterlimit="10" xmlns:xlink="http://www.w3.org/1999/xlink" xmlns="http://www.w3.org/2000/svg"><clipPath id="p.0"><path d="m0 0l404.6509 0l0 385.11548l-404.6509 0l0 -385.11548z" clip-rule="nonzero"/></clipPath><g clip-path="url(#p.0)"><path fill="#000000" fill-opacity="0.0" d="m0 0l404.6509 0l0 385.11548l-404.6509 0z" fill-rule="evenodd"/><path fill="#ffffff" d="m-2.7900262 -1.3963255l408.8504 0l0 385.13385l-408.8504 0z" fill-rule="evenodd"/><path fill="#000000" fill-opacity="0.0" d="m104.48819 274.65616l0.75590515 -250.77164" fill-rule="evenodd"/><path stroke="#000000" stroke-width="1.0" stroke-linejoin="round" stroke-linecap="butt" d="m104.48819 274.65616l0.73781586 -244.77167" fill-rule="evenodd"/><path fill="#000000" stroke="#000000" stroke-width="1.0" stroke-linecap="butt" d="m106.87773 29.889465l-1.6380463 -4.5430546l-1.6653976 4.533098z" fill-rule="evenodd"/><path fill="#000000" fill-opacity="0.0" d="m104.48819 274.65616l279.1496 0.7559204" fill-rule="evenodd"/><path stroke="#000000" stroke-width="1.0" stroke-linejoin="round" stroke-linecap="butt" d="m104.48819 274.65616l273.14966 0.73968506" fill-rule="evenodd"/><path fill="#000000" stroke="#000000" stroke-width="1.0" stroke-linecap="butt" d="m377.63333 277.04755l4.542572 -1.6394348l-4.5336 -1.6640015z" fill-rule="evenodd"/><path fill="#000000" fill-opacity="0.0" d="m104.48819 274.65616l-68.66142 77.63782" fill-rule="evenodd"/><path stroke="#000000" stroke-width="1.0" stroke-linejoin="round" stroke-linecap="butt" d="m104.48819 274.65616l-64.68657 73.14331" fill-rule="evenodd"/><path fill="#000000" stroke="#000000" stroke-width="1.0" stroke-linecap="butt" d="m38.56434 346.70523l-1.7690926 4.4936523l4.243664 -2.3051758z" fill-rule="evenodd"/><path fill="#000000" fill-opacity="0.0" d="m73.14173 33.5853l26.866142 0l0 42.01575l-26.866142 0z" fill-rule="evenodd"/><path fill="#000000" d="m82.50111 60.5053l0 -1.328125l6.15625 -7.078125q-1.046875 0.0625 -1.84375 0.0625l-3.9375 0l0 -1.328125l7.90625 0l0 1.078125l-5.25 6.140625l-1.0 1.125q1.09375 -0.078125 2.0625 -0.078125l4.46875 0l0 1.40625l-8.5625 0z" fill-rule="nonzero"/><path fill="#000000" fill-opacity="0.0" d="m344.06824 274.65616l26.86615 0l0 42.015747l-26.86615 0z" fill-rule="evenodd"/><path fill="#000000" d="m354.2245 305.29492l-0.1875 -1.53125q0.546875 0.140625 0.9375 0.140625q0.546875 0 0.875 -0.1875q0.328125 -0.171875 0.546875 -0.5q0.15625 -0.25 0.5 -1.21875q0.046875 -0.140625 0.140625 -0.40625l-3.671875 -9.6875l1.765625 0l2.015625 5.59375q0.390625 1.078125 0.703125 2.25q0.28125 -1.125 0.671875 -2.203125l2.078125 -5.640625l1.640625 0l-3.6875 9.828125q-0.59375 1.609375 -0.921875 2.203125q-0.4375 0.8125 -1.0 1.1875q-0.5625 0.375 -1.34375 0.375q-0.484375 0 -1.0625 -0.203125z" fill-rule="nonzero"/><path fill="#000000" fill-opacity="0.0" d="m158.97113 116.43009c1.8009644 -10.780518 10.825378 -23.085716 21.64566 -24.629921c8.616959 -1.2297516 18.854218 5.4824066 22.391083 13.435699c12.851379 28.898666 20.412842 59.89833 29.107605 90.30708c5.6931763 19.911087 2.5218658 45.06517 17.16536 59.708664" fill-rule="evenodd"/><path stroke="#4a86e8" stroke-width="2.0" stroke-linejoin="round" stroke-linecap="butt" d="m158.97113 116.43009c1.8009644 -10.780518 10.825378 -23.085716 21.64566 -24.629921c8.616959 -1.2297516 18.854218 5.4824066 22.391083 13.435699c12.851379 28.898666 20.412842 59.89833 29.107605 90.30708c5.6931763 19.911087 2.5218658 45.06517 17.16536 59.708664" fill-rule="evenodd"/><path fill="#000000" fill-opacity="0.0" d="m250.02625 256.74216c7.0010376 18.67218 13.921692 56.31131 32.839905 50.00525c13.731354 -4.577118 16.73941 -24.199036 20.897644 -38.06299c6.9046326 -23.020935 12.575104 -49.922623 31.346436 -64.93176c8.011078 -6.405487 18.60559 10.608276 23.881897 19.40419" fill-rule="evenodd"/><path stroke="#4a86e8" stroke-width="2.0" stroke-linejoin="round" stroke-linecap="butt" d="m250.02625 256.74216c7.0010376 18.67218 13.921692 56.31131 32.839905 50.00525c13.731354 -4.577118 16.73941 -24.199036 20.897644 -38.06299c6.9046326 -23.020935 12.575104 -49.922623 31.346436 -64.93176c8.011078 -6.405487 18.60559 10.608276 23.881897 19.40419" fill-rule="evenodd"/><path fill="#000000" fill-opacity="0.0" d="m184.34908 247.04199l42.551193 0l0 37.165344l-42.551193 0z" fill-rule="evenodd"/><path fill="#000000" fill-opacity="0.0" d="m198.27296 71.86089l46.267715 0l0 35.55905l-46.267715 0z" fill-rule="evenodd"/><path fill="#000000" d="m208.25734 93.66089l0 -9.546875l1.90625 0l2.25 6.765625q0.3125 0.9375 0.46875 1.40625q0.15625 -0.515625 0.5 -1.53125l2.28125 -6.640625l1.703125 0l0 9.546875l-1.21875 0l0 -7.984375l-2.765625 7.984375l-1.140625 0l-2.765625 -8.125l0 8.125l-1.21875 0zm13.243057 2.8125q-0.984375 -1.234375 -1.65625 -2.875q-0.65625 -1.640625 -0.65625 -3.390625q0 -1.546875 0.5 -2.96875q0.578125 -1.640625 1.8125 -3.28125l0.828125 0q-0.78125 1.359375 -1.03125 1.9375q-0.40625 0.890625 -0.625 1.875q-0.28125 1.21875 -0.28125 2.4375q0 3.140625 1.9375 6.265625l-0.828125 0zm4.7508698 -3.859375l0.171875 1.03125q-0.5 0.109375 -0.890625 0.109375q-0.640625 0 -1.0 -0.203125q-0.34375 -0.203125 -0.484375 -0.53125q-0.140625 -0.328125 -0.140625 -1.390625l0 -3.96875l-0.859375 0l0 -0.90625l0.859375 0l0 -1.71875l1.171875 -0.703125l0 2.421875l1.171875 0l0 0.90625l-1.171875 0l0 4.046875q0 0.5 0.046875 0.640625q0.0625 0.140625 0.203125 0.234375q0.140625 0.078125 0.40625 0.078125q0.203125 0 0.515625 -0.046875zm1.9061127 3.859375l-0.828125 0q1.9375 -3.125 1.9375 -6.265625q0 -1.21875 -0.28125 -2.421875q-0.21875 -0.984375 -0.609375 -1.875q-0.265625 -0.59375 -1.046875 -1.953125l0.828125 0q1.234375 1.640625 1.8125 3.28125q0.5 1.421875 0.5 2.96875q0 1.75 -0.671875 3.390625q-0.671875 1.640625 -1.640625 2.875z" fill-rule="nonzero"/><path fill="#000000" fill-opacity="0.0" d="m40.892387 211.48294l23.55906 0l0 35.55905l-23.55906 0z" fill-rule="evenodd"/><path fill="#000000" fill-opacity="0.0" d="m104.95538 275.08136l98.92914 -171.43307" fill-rule="evenodd"/><path stroke="#ff0000" stroke-width="2.0" stroke-linejoin="round" stroke-linecap="butt" d="m104.95538 275.08136l92.931305 -161.0395" fill-rule="evenodd"/><path fill="#ff0000" stroke="#ff0000" stroke-width="2.0" stroke-linecap="butt" d="m200.74792 115.692986l1.6752167 -9.512299l-7.39769 6.2100296z" fill-rule="evenodd"/><path fill="#000000" fill-opacity="0.0" d="m107.973755 125.267715l90.29921 0l0 42.015747l-90.29921 0z" fill-rule="evenodd"/><path fill="#ff0000" d="m117.880005 145.68771q0 -3.328125 1.78125 -5.203125q1.78125 -1.890625 4.609375 -1.890625q1.84375 0 3.328125 0.890625q1.484375 0.875 2.265625 2.46875q0.78125 1.578125 0.78125 3.578125q0 2.03125 -0.828125 3.640625q-0.8125 1.59375 -2.3125 2.421875q-1.5 0.828125 -3.25 0.828125q-1.875 0 -3.359375 -0.90625q-1.484375 -0.921875 -2.25 -2.5q-0.765625 -1.578125 -0.765625 -3.328125zm1.8125 0.015625q0 2.421875 1.296875 3.8125q1.296875 1.390625 3.265625 1.390625q2.0 0 3.28125 -1.40625q1.28125 -1.40625 1.28125 -3.984375q0 -1.625 -0.546875 -2.84375q-0.546875 -1.21875 -1.609375 -1.875q-1.0625 -0.671875 -2.375 -0.671875q-1.890625 0 -3.25 1.296875q-1.34375 1.28125 -1.34375 4.28125zm13.183304 6.484375l0 -13.359375l2.65625 0l3.15625 9.453125q0.4375 1.328125 0.640625 1.984375q0.234375 -0.734375 0.703125 -2.140625l3.203125 -9.296875l2.375 0l0 13.359375l-1.703125 0l0 -11.171875l-3.875 11.171875l-1.59375 0l-3.859375 -11.375l0 11.375l-1.703125 0zm18.509552 3.921875q-1.359375 -1.703125 -2.296875 -4.0q-0.9375 -2.296875 -0.9375 -4.765625q0 -2.15625 0.703125 -4.140625q0.828125 -2.3125 2.53125 -4.59375l1.171875 0q-1.09375 1.890625 -1.453125 2.703125q-0.546875 1.25 -0.875 2.625q-0.390625 1.703125 -0.390625 3.421875q0 4.375 2.71875 8.75l-1.171875 0zm6.665802 -5.390625l0.234375 1.453125q-0.6875 0.140625 -1.234375 0.140625q-0.890625 0 -1.390625 -0.28125q-0.484375 -0.28125 -0.6875 -0.734375q-0.203125 -0.46875 -0.203125 -1.9375l0 -5.578125l-1.203125 0l0 -1.265625l1.203125 0l0 -2.390625l1.625 -0.984375l0 3.375l1.65625 0l0 1.265625l-1.65625 0l0 5.671875q0 0.6875 0.078125 0.890625q0.09375 0.203125 0.28125 0.328125q0.203125 0.109375 0.578125 0.109375q0.265625 0 0.71875 -0.0625zm2.6833038 5.390625l-1.1875 0q2.734375 -4.375 2.734375 -8.75q0 -1.71875 -0.390625 -3.390625q-0.3125 -1.375 -0.875 -2.625q-0.359375 -0.828125 -1.46875 -2.734375l1.1875 0q1.703125 2.28125 2.53125 4.59375q0.6875 1.984375 0.6875 4.140625q0 2.46875 -0.9375 4.765625q-0.9375 2.296875 -2.28125 4.0z" fill-rule="nonzero"/><path fill="#000000" fill-opacity="0.0" d="m119.343834 132.88715l18.614174 0.8503876" fill-rule="evenodd"/><path stroke="#ff0000" stroke-width="1.0" stroke-linejoin="round" stroke-linecap="butt" d="m119.343834 132.88715l12.62043 0.57655334" fill-rule="evenodd"/><path fill="#ff0000" stroke="#ff0000" stroke-width="1.0" stroke-linecap="butt" d="m131.88887 135.11372l4.6087494 -1.4429016l-4.4579773 -1.857132z" fill-rule="evenodd"/><path fill="#000000" d="m197.2126 104.485565c0 -0.100242615 0.53590393 -0.19637299 1.4898376 -0.26725006c0.95391846 -0.070884705 2.2477264 -0.110702515 3.5967712 -0.110702515l0 0c2.8092651 0 5.086624 0.16921234 5.086624 0.37795258l0 0c0 0.20874023 -2.277359 0.37795258 -5.086624 0.37795258l0 0c-2.8092499 0 -5.086609 -0.16921234 -5.086609 -0.37795258z" fill-rule="evenodd"/><path fill="#000000" fill-opacity="0.0" d="m205.896 104.752815l39.653534 54.614174" fill-rule="evenodd"/><path stroke="#000000" stroke-width="1.0" stroke-linejoin="round" stroke-linecap="butt" d="m205.896 104.75282l36.12834 49.758972" fill-rule="evenodd"/><path fill="#000000" stroke="#000000" stroke-width="1.0" stroke-linecap="butt" d="m240.68776 155.48224l4.0028687 2.7017822l-1.3297119 -4.6426697z" fill-rule="evenodd"/><path fill="#000000" fill-opacity="0.0" d="m176.13649 66.42519l112.69292 148.53543" fill-rule="evenodd"/><path stroke="#000000" stroke-width="1.0" stroke-linejoin="round" stroke-linecap="butt" stroke-dasharray="4.0,3.0" d="m176.13649 66.42519l112.69292 148.53543" fill-rule="evenodd"/><path fill="#000000" fill-opacity="0.0" d="m253.75853 131.35695l53.732285 0l0 35.559067l-53.732285 0z" fill-rule="evenodd"/><path fill="#000000" d="m266.50854 153.15695l-3.6875 -9.546875l1.359375 0l2.484375 6.9375q0.296875 0.828125 0.5 1.5625q0.21875 -0.78125 0.515625 -1.5625l2.578125 -6.9375l1.28125 0l-3.734375 9.546875l-1.296875 0z" fill-rule="nonzero"/><path fill="#000000" d="m272.30453 158.15695l0 -6.359375l1.265625 0l1.5 4.5q0.21875 0.640625 0.3125 0.9375q0.109375 -0.34375 0.328125 -1.015625l1.53125 -4.421875l1.125 0l0 6.359375l-0.8125 0l0 -5.3125l-1.84375 5.3125l-0.75 0l-1.84375 -5.40625l0 5.40625l-0.8125 0z" fill-rule="nonzero"/><path fill="#000000" d="m282.1661 155.96945q-0.984375 -1.234375 -1.65625 -2.875q-0.65625 -1.640625 -0.65625 -3.390625q0 -1.546875 0.5 -2.96875q0.578125 -1.640625 1.8125 -3.28125l0.828125 0q-0.78125 1.359375 -1.03125 1.9375q-0.40625 0.890625 -0.625 1.875q-0.28125 1.21875 -0.28125 2.4375q0 3.140625 1.9375 6.265625l-0.828125 0zm4.750885 -3.859375l0.171875 1.03125q-0.5 0.109375 -0.890625 0.109375q-0.640625 0 -1.0 -0.203125q-0.34375 -0.203125 -0.484375 -0.53125q-0.140625 -0.328125 -0.140625 -1.390625l0 -3.96875l-0.859375 0l0 -0.90625l0.859375 0l0 -1.71875l1.171875 -0.703125l0 2.421875l1.171875 0l0 0.90625l-1.171875 0l0 4.046875q0 0.5 0.046875 0.640625q0.0625 0.140625 0.203125 0.234375q0.140625 0.078125 0.40625 0.078125q0.203125 0 0.515625 -0.046875zm1.9060974 3.859375l-0.828125 0q1.9375 -3.125 1.9375 -6.265625q0 -1.21875 -0.28125 -2.421875q-0.21875 -0.984375 -0.609375 -1.875q-0.265625 -0.59375 -1.046875 -1.953125l0.828125 0q1.234375 1.640625 1.8125 3.28125q0.5 1.421875 0.5 2.96875q0 1.75 -0.671875 3.390625q-0.671875 1.640625 -1.640625 2.875z" fill-rule="nonzero"/><path fill="#000000" fill-opacity="0.0" d="m258.98163 132.10236l21.637787 -0.75590515" fill-rule="evenodd"/><path stroke="#000000" stroke-width="1.0" stroke-linejoin="round" stroke-linecap="butt" d="m258.98163 132.10236l15.641449 -0.54641724" fill-rule="evenodd"/><path fill="#000000" stroke="#000000" stroke-width="1.0" stroke-linecap="butt" d="m274.68076 133.20667l4.477661 -1.8091736l-4.5930176 -1.492279z" fill-rule="evenodd"/><path fill="#000000" fill-opacity="0.0" d="m73.14173 250.77165l35.086617 0l0 35.559067l-35.086617 0z" fill-rule="evenodd"/><path fill="#000000" d="m82.78236 267.93103q0 -2.375 1.28125 -3.71875q1.28125 -1.34375 3.296875 -1.34375q1.3125 0 2.375 0.625q1.0625 0.625 1.609375 1.765625q0.5625 1.125 0.5625 2.5625q0 1.4375 -0.59375 2.59375q-0.578125 1.140625 -1.65625 1.734375q-1.0625 0.578125 -2.3125 0.578125q-1.34375 0 -2.40625 -0.640625q-1.0625 -0.65625 -1.609375 -1.78125q-0.546875 -1.125 -0.546875 -2.375zm1.3125 0.015625q0 1.71875 0.921875 2.71875q0.921875 0.984375 2.328125 0.984375q1.421875 0 2.34375 -1.0q0.921875 -1.0 0.921875 -2.84375q0 -1.15625 -0.40625 -2.03125q-0.390625 -0.875 -1.15625 -1.34375q-0.75 -0.484375 -1.6875 -0.484375q-1.34375 0 -2.3125 0.921875q-0.953125 0.921875 -0.953125 3.078125z" fill-rule="nonzero"/><path fill="#000000" fill-opacity="0.0" d="m163.45145 105.23622l1.4803162 -2.2362213" fill-rule="evenodd"/><path stroke="#000000" stroke-width="1.0" stroke-linejoin="round" stroke-linecap="butt" d="m163.45145 105.23622l1.4803162 -2.2362213" fill-rule="evenodd"/><path fill="#000000" fill-opacity="0.0" d="m161.57611 108.968506l5.228348 -9.70079" fill-rule="evenodd"/><path stroke="#0000ff" stroke-width="2.0" stroke-linejoin="round" stroke-linecap="butt" d="m161.57611 108.968506l1.9764557 -3.6671524" fill-rule="evenodd"/><path fill="#0000ff" stroke="#0000ff" stroke-width="2.0" stroke-linecap="butt" d="m163.55257 105.30136l0.9128113 3.0470047l0.95191956 -6.506859l-4.911743 4.372673z" fill-rule="evenodd"/><path fill="#000000" fill-opacity="0.0" d="m176.13518 91.49344l13.480301 1.921257" fill-rule="evenodd"/><path stroke="#0000ff" stroke-width="2.0" stroke-linejoin="round" stroke-linecap="butt" d="m176.13518 91.49344l6.6947174 0.95414734" fill-rule="evenodd"/><path fill="#0000ff" stroke="#0000ff" stroke-width="2.0" stroke-linecap="butt" d="m182.82988 92.44759l-2.5440063 1.9093094l6.4350586 -1.354744l-5.8003693 -3.098587z" fill-rule="evenodd"/><path fill="#000000" fill-opacity="0.0" d="m219.06036 146.47507l1.1023712 8.031494" fill-rule="evenodd"/><path stroke="#0000ff" stroke-width="2.0" stroke-linejoin="round" stroke-linecap="butt" d="m219.06036 146.47507l0.17033386 1.240982" fill-rule="evenodd"/><path fill="#0000ff" stroke="#0000ff" stroke-width="2.0" stroke-linecap="butt" d="m219.2307 147.71605l-2.5341187 -1.9224243l3.068573 5.816284l1.3879852 -6.4279785z" fill-rule="evenodd"/><path fill="#000000" fill-opacity="0.0" d="m235.69685 202.25722l0.1574707 14.67717" fill-rule="evenodd"/><path stroke="#0000ff" stroke-width="2.0" stroke-linejoin="round" stroke-linecap="butt" d="m235.69685 202.25722l0.0839386 7.823395" fill-rule="evenodd"/><path fill="#0000ff" stroke="#0000ff" stroke-width="2.0" stroke-linecap="butt" d="m235.78079 210.08061l-2.2731628 -2.2249146l2.3153381 6.1550446l2.182724 -6.203308z" fill-rule="evenodd"/></g></svg>